<mxfile host="Electron" agent="Mozilla/5.0 (Windows NT 10.0; Win64; x64) AppleWebKit/537.36 (KHTML, like Gecko) draw.io/28.0.6 Chrome/138.0.7204.100 Electron/37.2.3 Safari/537.36" version="28.0.6">
  <diagram name="Page-1" id="aGV7IujWI0nr62rLXKQM">
    <mxGraphModel dx="913" dy="1035" grid="1" gridSize="10" guides="1" tooltips="1" connect="1" arrows="1" fold="1" page="1" pageScale="1" pageWidth="2339" pageHeight="3300" math="0" shadow="0">
      <root>
        <mxCell id="0" />
        <mxCell id="1" parent="0" />
        <mxCell id="SNH5t1fXS8ImR44cBiFL-12" style="edgeStyle=orthogonalEdgeStyle;rounded=0;orthogonalLoop=1;jettySize=auto;html=1;entryX=0.5;entryY=1;entryDx=0;entryDy=0;" edge="1" parent="1" source="SNH5t1fXS8ImR44cBiFL-1" target="SNH5t1fXS8ImR44cBiFL-8">
          <mxGeometry relative="1" as="geometry" />
        </mxCell>
        <mxCell id="SNH5t1fXS8ImR44cBiFL-13" style="edgeStyle=orthogonalEdgeStyle;rounded=0;orthogonalLoop=1;jettySize=auto;html=1;" edge="1" parent="1" source="SNH5t1fXS8ImR44cBiFL-1" target="SNH5t1fXS8ImR44cBiFL-7">
          <mxGeometry relative="1" as="geometry" />
        </mxCell>
        <mxCell id="SNH5t1fXS8ImR44cBiFL-37" value="" style="edgeStyle=orthogonalEdgeStyle;rounded=0;orthogonalLoop=1;jettySize=auto;html=1;" edge="1" parent="1" source="SNH5t1fXS8ImR44cBiFL-1" target="SNH5t1fXS8ImR44cBiFL-36">
          <mxGeometry relative="1" as="geometry" />
        </mxCell>
        <mxCell id="SNH5t1fXS8ImR44cBiFL-1" value="Sales_Office" style="rounded=0;whiteSpace=wrap;html=1;" vertex="1" parent="1">
          <mxGeometry x="690" y="1750" width="120" height="60" as="geometry" />
        </mxCell>
        <mxCell id="SNH5t1fXS8ImR44cBiFL-32" style="edgeStyle=orthogonalEdgeStyle;rounded=0;orthogonalLoop=1;jettySize=auto;html=1;entryX=0.5;entryY=1;entryDx=0;entryDy=0;" edge="1" parent="1" source="SNH5t1fXS8ImR44cBiFL-3" target="SNH5t1fXS8ImR44cBiFL-9">
          <mxGeometry relative="1" as="geometry" />
        </mxCell>
        <mxCell id="SNH5t1fXS8ImR44cBiFL-51" value="" style="edgeStyle=orthogonalEdgeStyle;rounded=0;orthogonalLoop=1;jettySize=auto;html=1;" edge="1" parent="1" source="SNH5t1fXS8ImR44cBiFL-3" target="SNH5t1fXS8ImR44cBiFL-50">
          <mxGeometry relative="1" as="geometry" />
        </mxCell>
        <mxCell id="SNH5t1fXS8ImR44cBiFL-58" value="" style="edgeStyle=orthogonalEdgeStyle;rounded=0;orthogonalLoop=1;jettySize=auto;html=1;shape=link;" edge="1" parent="1" source="SNH5t1fXS8ImR44cBiFL-3" target="SNH5t1fXS8ImR44cBiFL-57">
          <mxGeometry relative="1" as="geometry" />
        </mxCell>
        <mxCell id="SNH5t1fXS8ImR44cBiFL-3" value="Property" style="rounded=0;whiteSpace=wrap;html=1;" vertex="1" parent="1">
          <mxGeometry x="1265" y="1765" width="120" height="60" as="geometry" />
        </mxCell>
        <mxCell id="SNH5t1fXS8ImR44cBiFL-14" style="edgeStyle=orthogonalEdgeStyle;rounded=0;orthogonalLoop=1;jettySize=auto;html=1;" edge="1" parent="1" source="SNH5t1fXS8ImR44cBiFL-4" target="SNH5t1fXS8ImR44cBiFL-11">
          <mxGeometry relative="1" as="geometry" />
        </mxCell>
        <mxCell id="SNH5t1fXS8ImR44cBiFL-15" style="edgeStyle=orthogonalEdgeStyle;rounded=0;orthogonalLoop=1;jettySize=auto;html=1;entryX=0.5;entryY=0;entryDx=0;entryDy=0;" edge="1" parent="1" source="SNH5t1fXS8ImR44cBiFL-4" target="SNH5t1fXS8ImR44cBiFL-10">
          <mxGeometry relative="1" as="geometry" />
        </mxCell>
        <mxCell id="SNH5t1fXS8ImR44cBiFL-44" value="" style="edgeStyle=orthogonalEdgeStyle;rounded=0;orthogonalLoop=1;jettySize=auto;html=1;shape=link;" edge="1" parent="1" source="SNH5t1fXS8ImR44cBiFL-4" target="SNH5t1fXS8ImR44cBiFL-43">
          <mxGeometry relative="1" as="geometry" />
        </mxCell>
        <mxCell id="SNH5t1fXS8ImR44cBiFL-4" value="Employee" style="rounded=0;whiteSpace=wrap;html=1;" vertex="1" parent="1">
          <mxGeometry x="690" y="2050" width="120" height="60" as="geometry" />
        </mxCell>
        <mxCell id="SNH5t1fXS8ImR44cBiFL-34" style="edgeStyle=orthogonalEdgeStyle;rounded=0;orthogonalLoop=1;jettySize=auto;html=1;" edge="1" parent="1" source="SNH5t1fXS8ImR44cBiFL-5" target="SNH5t1fXS8ImR44cBiFL-20">
          <mxGeometry relative="1" as="geometry" />
        </mxCell>
        <mxCell id="SNH5t1fXS8ImR44cBiFL-35" style="edgeStyle=orthogonalEdgeStyle;rounded=0;orthogonalLoop=1;jettySize=auto;html=1;" edge="1" parent="1" source="SNH5t1fXS8ImR44cBiFL-5" target="SNH5t1fXS8ImR44cBiFL-19">
          <mxGeometry relative="1" as="geometry" />
        </mxCell>
        <mxCell id="SNH5t1fXS8ImR44cBiFL-5" value="Owner" style="rounded=0;whiteSpace=wrap;html=1;" vertex="1" parent="1">
          <mxGeometry x="1265" y="2070" width="120" height="60" as="geometry" />
        </mxCell>
        <mxCell id="SNH5t1fXS8ImR44cBiFL-6" value="" style="rounded=0;whiteSpace=wrap;html=1;" vertex="1" parent="1">
          <mxGeometry x="460" y="2240" width="120" height="60" as="geometry" />
        </mxCell>
        <mxCell id="SNH5t1fXS8ImR44cBiFL-7" value="Office_Number" style="ellipse;whiteSpace=wrap;html=1;" vertex="1" parent="1">
          <mxGeometry x="670" y="1650" width="90" height="40" as="geometry" />
        </mxCell>
        <mxCell id="SNH5t1fXS8ImR44cBiFL-8" value="Location" style="ellipse;whiteSpace=wrap;html=1;" vertex="1" parent="1">
          <mxGeometry x="770" y="1650" width="70" height="40" as="geometry" />
        </mxCell>
        <mxCell id="SNH5t1fXS8ImR44cBiFL-23" value="" style="edgeStyle=orthogonalEdgeStyle;rounded=0;orthogonalLoop=1;jettySize=auto;html=1;" edge="1" parent="1" source="SNH5t1fXS8ImR44cBiFL-9" target="SNH5t1fXS8ImR44cBiFL-22">
          <mxGeometry relative="1" as="geometry" />
        </mxCell>
        <mxCell id="SNH5t1fXS8ImR44cBiFL-25" value="" style="edgeStyle=orthogonalEdgeStyle;rounded=0;orthogonalLoop=1;jettySize=auto;html=1;" edge="1" parent="1" source="SNH5t1fXS8ImR44cBiFL-9" target="SNH5t1fXS8ImR44cBiFL-24">
          <mxGeometry relative="1" as="geometry" />
        </mxCell>
        <mxCell id="SNH5t1fXS8ImR44cBiFL-28" value="" style="edgeStyle=orthogonalEdgeStyle;rounded=0;orthogonalLoop=1;jettySize=auto;html=1;" edge="1" parent="1" source="SNH5t1fXS8ImR44cBiFL-9" target="SNH5t1fXS8ImR44cBiFL-27">
          <mxGeometry relative="1" as="geometry" />
        </mxCell>
        <mxCell id="SNH5t1fXS8ImR44cBiFL-31" style="edgeStyle=orthogonalEdgeStyle;rounded=0;orthogonalLoop=1;jettySize=auto;html=1;exitX=1;exitY=0;exitDx=0;exitDy=0;entryX=1;entryY=1;entryDx=0;entryDy=0;" edge="1" parent="1" source="SNH5t1fXS8ImR44cBiFL-9" target="SNH5t1fXS8ImR44cBiFL-29">
          <mxGeometry relative="1" as="geometry" />
        </mxCell>
        <mxCell id="SNH5t1fXS8ImR44cBiFL-9" value="Location" style="ellipse;whiteSpace=wrap;html=1;" vertex="1" parent="1">
          <mxGeometry x="1280" y="1710" width="70" height="40" as="geometry" />
        </mxCell>
        <mxCell id="SNH5t1fXS8ImR44cBiFL-10" value="&lt;u&gt;ID&lt;/u&gt;" style="ellipse;whiteSpace=wrap;html=1;" vertex="1" parent="1">
          <mxGeometry x="670" y="2170" width="70" height="40" as="geometry" />
        </mxCell>
        <mxCell id="SNH5t1fXS8ImR44cBiFL-11" value="Name" style="ellipse;whiteSpace=wrap;html=1;" vertex="1" parent="1">
          <mxGeometry x="750" y="2170" width="70" height="40" as="geometry" />
        </mxCell>
        <mxCell id="SNH5t1fXS8ImR44cBiFL-18" value="ID" style="ellipse;whiteSpace=wrap;html=1;" vertex="1" parent="1">
          <mxGeometry x="1430" y="1768" width="70" height="40" as="geometry" />
        </mxCell>
        <mxCell id="SNH5t1fXS8ImR44cBiFL-19" value="Name" style="ellipse;whiteSpace=wrap;html=1;" vertex="1" parent="1">
          <mxGeometry x="1270" y="2210" width="70" height="40" as="geometry" />
        </mxCell>
        <mxCell id="SNH5t1fXS8ImR44cBiFL-20" value="ID" style="ellipse;whiteSpace=wrap;html=1;" vertex="1" parent="1">
          <mxGeometry x="1370" y="2210" width="70" height="40" as="geometry" />
        </mxCell>
        <mxCell id="SNH5t1fXS8ImR44cBiFL-22" value="City" style="ellipse;whiteSpace=wrap;html=1;" vertex="1" parent="1">
          <mxGeometry x="1270" y="1640" width="70" height="40" as="geometry" />
        </mxCell>
        <mxCell id="SNH5t1fXS8ImR44cBiFL-24" value="State" style="ellipse;whiteSpace=wrap;html=1;" vertex="1" parent="1">
          <mxGeometry x="1420" y="1700" width="70" height="40" as="geometry" />
        </mxCell>
        <mxCell id="SNH5t1fXS8ImR44cBiFL-27" value="Address" style="ellipse;whiteSpace=wrap;html=1;" vertex="1" parent="1">
          <mxGeometry x="1200" y="1650" width="70" height="40" as="geometry" />
        </mxCell>
        <mxCell id="SNH5t1fXS8ImR44cBiFL-29" value="Zip_Code" style="ellipse;whiteSpace=wrap;html=1;" vertex="1" parent="1">
          <mxGeometry x="1350" y="1630" width="70" height="40" as="geometry" />
        </mxCell>
        <mxCell id="SNH5t1fXS8ImR44cBiFL-33" style="edgeStyle=orthogonalEdgeStyle;rounded=0;orthogonalLoop=1;jettySize=auto;html=1;entryX=0.086;entryY=0.675;entryDx=0;entryDy=0;entryPerimeter=0;" edge="1" parent="1" source="SNH5t1fXS8ImR44cBiFL-3" target="SNH5t1fXS8ImR44cBiFL-18">
          <mxGeometry relative="1" as="geometry" />
        </mxCell>
        <mxCell id="SNH5t1fXS8ImR44cBiFL-38" value="" style="edgeStyle=orthogonalEdgeStyle;rounded=0;orthogonalLoop=1;jettySize=auto;html=1;shape=link;" edge="1" parent="1" source="SNH5t1fXS8ImR44cBiFL-36" target="SNH5t1fXS8ImR44cBiFL-4">
          <mxGeometry relative="1" as="geometry" />
        </mxCell>
        <mxCell id="SNH5t1fXS8ImR44cBiFL-36" value="Assign" style="rhombus;whiteSpace=wrap;html=1;rounded=0;" vertex="1" parent="1">
          <mxGeometry x="710" y="1880" width="80" height="80" as="geometry" />
        </mxCell>
        <mxCell id="SNH5t1fXS8ImR44cBiFL-39" value="M" style="text;html=1;align=center;verticalAlign=middle;resizable=0;points=[];autosize=1;strokeColor=none;fillColor=none;" vertex="1" parent="1">
          <mxGeometry x="720" y="2010" width="30" height="30" as="geometry" />
        </mxCell>
        <mxCell id="SNH5t1fXS8ImR44cBiFL-40" value="1" style="text;html=1;align=center;verticalAlign=middle;resizable=0;points=[];autosize=1;strokeColor=none;fillColor=none;" vertex="1" parent="1">
          <mxGeometry x="715" y="1808" width="30" height="30" as="geometry" />
        </mxCell>
        <mxCell id="SNH5t1fXS8ImR44cBiFL-41" value="1" style="text;html=1;align=center;verticalAlign=middle;resizable=0;points=[];autosize=1;strokeColor=none;fillColor=none;" vertex="1" parent="1">
          <mxGeometry x="760" y="2010" width="30" height="30" as="geometry" />
        </mxCell>
        <mxCell id="SNH5t1fXS8ImR44cBiFL-42" value="1" style="text;html=1;align=center;verticalAlign=middle;resizable=0;points=[];autosize=1;strokeColor=none;fillColor=none;" vertex="1" parent="1">
          <mxGeometry x="750" y="1810" width="30" height="30" as="geometry" />
        </mxCell>
        <mxCell id="SNH5t1fXS8ImR44cBiFL-45" style="edgeStyle=orthogonalEdgeStyle;rounded=0;orthogonalLoop=1;jettySize=auto;html=1;entryX=0;entryY=0.5;entryDx=0;entryDy=0;" edge="1" parent="1" source="SNH5t1fXS8ImR44cBiFL-43" target="SNH5t1fXS8ImR44cBiFL-1">
          <mxGeometry relative="1" as="geometry">
            <Array as="points">
              <mxPoint x="640" y="1780" />
            </Array>
          </mxGeometry>
        </mxCell>
        <mxCell id="SNH5t1fXS8ImR44cBiFL-43" value="Manage" style="rhombus;whiteSpace=wrap;html=1;rounded=0;" vertex="1" parent="1">
          <mxGeometry x="600" y="1890" width="80" height="80" as="geometry" />
        </mxCell>
        <mxCell id="SNH5t1fXS8ImR44cBiFL-46" value="1" style="text;html=1;align=center;verticalAlign=middle;resizable=0;points=[];autosize=1;strokeColor=none;fillColor=none;" vertex="1" parent="1">
          <mxGeometry x="650" y="1755" width="30" height="30" as="geometry" />
        </mxCell>
        <mxCell id="SNH5t1fXS8ImR44cBiFL-47" value="1" style="text;html=1;align=center;verticalAlign=middle;resizable=0;points=[];autosize=1;strokeColor=none;fillColor=none;" vertex="1" parent="1">
          <mxGeometry x="640" y="2050" width="30" height="30" as="geometry" />
        </mxCell>
        <mxCell id="SNH5t1fXS8ImR44cBiFL-52" style="edgeStyle=orthogonalEdgeStyle;rounded=0;orthogonalLoop=1;jettySize=auto;html=1;entryX=1;entryY=0.75;entryDx=0;entryDy=0;shape=link;" edge="1" parent="1" source="SNH5t1fXS8ImR44cBiFL-50" target="SNH5t1fXS8ImR44cBiFL-1">
          <mxGeometry relative="1" as="geometry" />
        </mxCell>
        <mxCell id="SNH5t1fXS8ImR44cBiFL-50" value="List" style="rhombus;whiteSpace=wrap;html=1;rounded=0;" vertex="1" parent="1">
          <mxGeometry x="1010" y="1755" width="80" height="80" as="geometry" />
        </mxCell>
        <mxCell id="SNH5t1fXS8ImR44cBiFL-53" value="1" style="text;html=1;align=center;verticalAlign=middle;resizable=0;points=[];autosize=1;strokeColor=none;fillColor=none;" vertex="1" parent="1">
          <mxGeometry x="815" y="1768" width="30" height="30" as="geometry" />
        </mxCell>
        <mxCell id="SNH5t1fXS8ImR44cBiFL-54" value="1" style="text;html=1;align=center;verticalAlign=middle;resizable=0;points=[];autosize=1;strokeColor=none;fillColor=none;" vertex="1" parent="1">
          <mxGeometry x="1240" y="1768" width="30" height="30" as="geometry" />
        </mxCell>
        <mxCell id="SNH5t1fXS8ImR44cBiFL-55" value="1" style="text;html=1;align=center;verticalAlign=middle;resizable=0;points=[];autosize=1;strokeColor=none;fillColor=none;" vertex="1" parent="1">
          <mxGeometry x="815" y="1795" width="30" height="30" as="geometry" />
        </mxCell>
        <mxCell id="SNH5t1fXS8ImR44cBiFL-56" value="M" style="text;html=1;align=center;verticalAlign=middle;resizable=0;points=[];autosize=1;strokeColor=none;fillColor=none;" vertex="1" parent="1">
          <mxGeometry x="1240" y="1795" width="30" height="30" as="geometry" />
        </mxCell>
        <mxCell id="SNH5t1fXS8ImR44cBiFL-59" value="" style="edgeStyle=orthogonalEdgeStyle;rounded=0;orthogonalLoop=1;jettySize=auto;html=1;" edge="1" parent="1" source="SNH5t1fXS8ImR44cBiFL-57" target="SNH5t1fXS8ImR44cBiFL-5">
          <mxGeometry relative="1" as="geometry" />
        </mxCell>
        <mxCell id="SNH5t1fXS8ImR44cBiFL-57" value="Have" style="rhombus;whiteSpace=wrap;html=1;rounded=0;" vertex="1" parent="1">
          <mxGeometry x="1285" y="1910" width="80" height="80" as="geometry" />
        </mxCell>
        <mxCell id="SNH5t1fXS8ImR44cBiFL-60" value="1" style="text;html=1;align=center;verticalAlign=middle;resizable=0;points=[];autosize=1;strokeColor=none;fillColor=none;" vertex="1" parent="1">
          <mxGeometry x="1295" y="1828" width="30" height="30" as="geometry" />
        </mxCell>
        <mxCell id="SNH5t1fXS8ImR44cBiFL-61" value="1" style="text;html=1;align=center;verticalAlign=middle;resizable=0;points=[];autosize=1;strokeColor=none;fillColor=none;" vertex="1" parent="1">
          <mxGeometry x="1295" y="2038" width="30" height="30" as="geometry" />
        </mxCell>
        <mxCell id="SNH5t1fXS8ImR44cBiFL-62" value="1" style="text;html=1;align=center;verticalAlign=middle;resizable=0;points=[];autosize=1;strokeColor=none;fillColor=none;" vertex="1" parent="1">
          <mxGeometry x="1325" y="2038" width="30" height="30" as="geometry" />
        </mxCell>
        <mxCell id="SNH5t1fXS8ImR44cBiFL-63" value="M" style="text;html=1;align=center;verticalAlign=middle;resizable=0;points=[];autosize=1;strokeColor=none;fillColor=none;" vertex="1" parent="1">
          <mxGeometry x="1325" y="1828" width="30" height="30" as="geometry" />
        </mxCell>
      </root>
    </mxGraphModel>
  </diagram>
</mxfile>
